<?xml version="1.0" encoding="UTF-8" standalone="no"?><!DOCTYPE svg PUBLIC "-//W3C//DTD SVG 1.1//EN" "http://www.w3.org/Graphics/SVG/1.1/DTD/svg11.dtd"><!-- Generated by graphviz version 2.40.1 (20161225.0304)
 --><!-- Title: G Pages: 1 --><svg xmlns="http://www.w3.org/2000/svg" xmlns:xlink="http://www.w3.org/1999/xlink" width="578pt" height="283pt" viewBox="0.00 0.00 578.00 283.20">
<g id="graph0" class="graph" transform="scale(1 1) rotate(0) translate(4 279.2)">
<title>G</title>
<polygon fill="#ffffff" stroke="transparent" points="-4,4 -4,-279.2 574,-279.2 574,4 -4,4"/>
<g id="clust1" class="cluster">
<title>cluster_3</title>
<polygon fill="none" stroke="#000000" points="8,-8 8,-267.2 562,-267.2 562,-8 8,-8"/>
</g>
<g id="clust2" class="cluster">
<title>cluster_2</title>
<polygon fill="#c0c0c0" stroke="#c0c0c0" points="16,-16 16,-259.2 554,-259.2 554,-16 16,-16"/>
<text text-anchor="middle" x="285" y="-242.6" font-family="Times,serif" font-size="14.00" fill="#000000">asterion organization</text>
</g>
<g id="clust3" class="cluster">
<title>cluster_7</title>
<polygon fill="#add8e6" stroke="#add8e6" points="24,-24 24,-226.4 546,-226.4 546,-24 24,-24"/>
<text text-anchor="middle" x="285" y="-209.8" font-family="Times,serif" font-size="14.00" fill="#000000">asterion infra-aws org unit</text>
</g>
<g id="clust4" class="cluster">
<title>cluster_5</title>
<polygon fill="#ffffe0" stroke="#ffffe0" points="32,-32 32,-193.6 538,-193.6 538,-32 32,-32"/>
<text text-anchor="middle" x="285" y="-177" font-family="Times,serif" font-size="14.00" fill="#000000">asterion infra-aws team account</text>
</g>
<g id="clust6" class="cluster">
<title>cluster_7</title>
<polygon fill="#add8e6" stroke="#add8e6" points="306,-40 306,-116.8 530,-116.8 530,-40 306,-40"/>
<text text-anchor="middle" x="418" y="-100.2" font-family="Times,serif" font-size="14.00" fill="#000000">prod</text>
</g>
<g id="clust5" class="cluster">
<title>cluster_6</title>
<polygon fill="#add8e6" stroke="#add8e6" points="40,-40 40,-116.8 298,-116.8 298,-40 40,-40"/>
<text text-anchor="middle" x="169" y="-100.2" font-family="Times,serif" font-size="14.00" fill="#000000">non-prod</text>
</g>
<!-- shawn -->
<g id="node1" class="node">
<title>shawn</title>
<ellipse fill="#c0c0c0" stroke="#c0c0c0" cx="180" cy="-142.8" rx="35.9154" ry="18"/>
<text text-anchor="middle" x="180" y="-138.6" font-family="Times,serif" font-size="14.00" fill="#000000">shawn</text>
</g>
<!-- assume non&#45;prod admin role -->
<g id="node4" class="node">
<title>assume non-prod admin role</title>
<ellipse fill="#ffffff" stroke="#ffffff" cx="169" cy="-66" rx="121.0164" ry="18"/>
<text text-anchor="middle" x="169" y="-61.8" font-family="Times,serif" font-size="14.00" fill="#000000">assume non-prod admin role</text>
</g>
<!-- shawn&#45;&gt;assume non&#45;prod admin role -->
<g id="edge4" class="edge">
<title>shawn-&gt;assume non-prod admin role</title>
<path fill="none" stroke="#000000" d="M177.3932,-124.5995C176.0917,-115.5132 174.4882,-104.3176 173.0326,-94.1549"/>
<polygon fill="#000000" stroke="#000000" points="176.4707,-93.4726 171.5881,-84.0699 169.5414,-94.4651 176.4707,-93.4726"/>
</g>
<!-- assume prod admin role -->
<g id="prod" class="node">
<title>assume prod admin role</title>
<ellipse fill="#ffffff" stroke="#ffffff" cx="418" cy="-66" rx="103.6156" ry="18"/>
<text text-anchor="middle" x="418" y="-61.8" font-family="Times,serif" font-size="14.00" fill="#000000">assume prod admin role</text>
</g>
<!-- shawn&#45;&gt;assume prod admin role -->
<g id="edge1" class="edge">
<title>shawn-&gt;assume prod admin role</title>
<path fill="none" stroke="#000000" d="M213.2781,-136.0696C246.4364,-129.305 293.5995,-119.5036 302,-116.8 326.7022,-108.8498 353.2853,-97.4315 374.7636,-87.4333"/>
<polygon fill="#000000" stroke="#000000" points="376.3901,-90.536 383.9407,-83.1038 373.4033,-84.2051 376.3901,-90.536"/>
</g>
<!-- james -->
<g id="node2" class="node">
<title>james</title>
<ellipse fill="#c0c0c0" stroke="#c0c0c0" cx="406" cy="-142.8" rx="33.6228" ry="18"/>
<text text-anchor="middle" x="406" y="-138.6" font-family="Times,serif" font-size="14.00" fill="#000000">james</text>
</g>
<!-- james&#45;&gt;assume non&#45;prod admin role -->
<g id="edge6" class="edge">
<title>james-&gt;assume non-prod admin role</title>
<path fill="none" stroke="#000000" d="M376.3401,-134.1303C365.2895,-131.0207 352.6119,-127.5954 341,-124.8 323.7972,-120.6587 318.9875,-121.7509 302,-116.8 273.7187,-108.5576 242.9444,-96.9796 218.1278,-86.9582"/>
<polygon fill="#000000" stroke="#000000" points="219.1609,-83.5996 208.5798,-83.061 216.5156,-90.0805 219.1609,-83.5996"/>
</g>
<!-- james&#45;&gt;assume prod admin role -->
<g id="edge3" class="edge">
<title>james-&gt;assume prod admin role</title>
<path fill="none" stroke="#000000" d="M408.8438,-124.5995C410.2636,-115.5132 412.0129,-104.3176 413.6008,-94.1549"/>
<polygon fill="#000000" stroke="#000000" points="417.0908,-94.4904 415.1766,-84.0699 410.1747,-93.4097 417.0908,-94.4904"/>
</g>
<!-- dj -->
<g id="node3" class="node">
<title>dj</title>
<ellipse fill="#c0c0c0" stroke="#c0c0c0" cx="305" cy="-142.8" rx="27" ry="18"/>
<text text-anchor="middle" x="305" y="-138.6" font-family="Times,serif" font-size="14.00" fill="#000000">dj</text>
</g>
<!-- dj&#45;&gt;assume non&#45;prod admin role -->
<g id="edge5" class="edge">
<title>dj-&gt;assume non-prod admin role</title>
<path fill="none" stroke="#000000" d="M284.3445,-131.1357C264.3581,-119.8493 233.5388,-102.4454 208.784,-88.4663"/>
<polygon fill="#000000" stroke="#000000" points="210.3981,-85.3583 199.9695,-83.4887 206.956,-91.4535 210.3981,-85.3583"/>
</g>
<!-- dj&#45;&gt;assume prod admin role -->
<g id="edge2" class="edge">
<title>dj-&gt;assume prod admin role</title>
<path fill="none" stroke="#000000" d="M323.9137,-129.9454C340.2231,-118.8607 364.1798,-102.5787 383.837,-89.2187"/>
<polygon fill="#000000" stroke="#000000" points="385.9393,-92.0218 392.2426,-83.5059 382.0045,-86.2323 385.9393,-92.0218"/>
</g>
</g>
</svg>