<?xml version="1.0" encoding="UTF-8" standalone="no"?><!DOCTYPE svg PUBLIC "-//W3C//DTD SVG 1.1//EN" "http://www.w3.org/Graphics/SVG/1.1/DTD/svg11.dtd"><!-- Generated by graphviz version 2.40.1 (20161225.0304)
 --><!-- Title: G Pages: 1 --><svg xmlns="http://www.w3.org/2000/svg" xmlns:xlink="http://www.w3.org/1999/xlink" width="696pt" height="324pt" viewBox="0.00 0.00 696.00 324.00">
<g id="graph0" class="graph" transform="scale(1 1) rotate(0) translate(4 320)">
<title>G</title>
<polygon fill="#ffffff" stroke="transparent" points="-4,4 -4,-320 692,-320 692,4 -4,4"/>
<g id="clust1" class="cluster">
<title>cluster_3</title>
<polygon fill="none" stroke="#000000" points="8,-8 8,-308 680,-308 680,-8 8,-8"/>
</g>
<g id="clust2" class="cluster">
<title>cluster_2</title>
<polygon fill="#c0c0c0" stroke="#c0c0c0" points="16,-16 16,-300 672,-300 672,-16 16,-16"/>
<text text-anchor="middle" x="344" y="-283.4" font-family="Times,serif" font-size="14.00" fill="#000000">asterion root org unit</text>
</g>
<g id="clust3" class="cluster">
<title>cluster_5</title>
<polygon fill="#add8e6" stroke="#add8e6" points="126,-24 126,-267.2 664,-267.2 664,-24 126,-24"/>
<text text-anchor="middle" x="395" y="-250.6" font-family="Times,serif" font-size="14.00" fill="#000000">asterion org unit</text>
</g>
<g id="clust4" class="cluster">
<title>cluster_5</title>
<polygon fill="#ffffe0" stroke="#ffffe0" points="134,-32 134,-234.4 656,-234.4 656,-32 134,-32"/>
<text text-anchor="middle" x="395" y="-217.8" font-family="Times,serif" font-size="14.00" fill="#000000">asterion team account</text>
</g>
<g id="clust5" class="cluster">
<title>cluster_7</title>
<polygon fill="#add8e6" stroke="#add8e6" points="142,-40 142,-157.6 648,-157.6 648,-40 142,-40"/>
<text text-anchor="middle" x="395" y="-141" font-family="Times,serif" font-size="14.00" fill="#000000">asterion infra-aws org unit</text>
</g>
<g id="clust7" class="cluster">
<title>cluster_7</title>
<polygon fill="#ffffe0" stroke="#ffffe0" points="416,-48 416,-124.8 640,-124.8 640,-48 416,-48"/>
<text text-anchor="middle" x="528" y="-108.2" font-family="Times,serif" font-size="14.00" fill="#000000">prod account</text>
</g>
<g id="clust6" class="cluster">
<title>cluster_6</title>
<polygon fill="#ffffe0" stroke="#ffffe0" points="150,-48 150,-124.8 408,-124.8 408,-48 150,-48"/>
<text text-anchor="middle" x="279" y="-108.2" font-family="Times,serif" font-size="14.00" fill="#000000">non-prod account</text>
</g>
<!-- root iams -->
<g id="node1" class="node">
<title>root iams</title>
<ellipse fill="#ffffff" stroke="#ffffff" cx="71" cy="-183.6" rx="47.4898" ry="18"/>
<text text-anchor="middle" x="71" y="-179.4" font-family="Times,serif" font-size="14.00" fill="#000000">root iams</text>
</g>
<!-- shawn -->
<g id="node2" class="node">
<title>shawn</title>
<ellipse fill="#c0c0c0" stroke="#c0c0c0" cx="516" cy="-183.6" rx="35.9154" ry="18"/>
<text text-anchor="middle" x="516" y="-179.4" font-family="Times,serif" font-size="14.00" fill="#000000">shawn</text>
</g>
<!-- assume non&#45;prod admin role -->
<g id="node5" class="node">
<title>assume non-prod admin role</title>
<ellipse fill="#c0c0c0" stroke="#c0c0c0" cx="279" cy="-74" rx="121.0164" ry="18"/>
<text text-anchor="middle" x="279" y="-69.8" font-family="Times,serif" font-size="14.00" fill="#000000">assume non-prod admin role</text>
</g>
<!-- shawn&#45;&gt;assume non&#45;prod admin role -->
<g id="edge4" class="edge">
<title>shawn-&gt;assume non-prod admin role</title>
<path fill="none" stroke="#000000" d="M484.7235,-174.8534C473.4898,-171.803 460.7057,-168.4361 449,-165.6 432.6486,-161.6384 427.5799,-163.9505 412,-157.6 374.5607,-142.3393 335.8835,-116.7197 309.9562,-97.8554"/>
<polygon fill="#000000" stroke="#000000" points="311.7969,-94.8639 301.6725,-91.7417 307.6401,-100.4961 311.7969,-94.8639"/>
</g>
<!-- assume prod admin role -->
<g id="node6" class="node">
<title>assume prod admin role</title>
<ellipse fill="#c0c0c0" stroke="#c0c0c0" cx="528" cy="-74" rx="103.6156" ry="18"/>
<text text-anchor="middle" x="528" y="-69.8" font-family="Times,serif" font-size="14.00" fill="#000000">assume prod admin role</text>
</g>
<!-- shawn&#45;&gt;assume prod admin role -->
<g id="edge1" class="edge">
<title>shawn-&gt;assume prod admin role</title>
<path fill="none" stroke="#000000" d="M517.9816,-165.5018C519.8662,-148.2883 522.7299,-122.1333 524.9136,-102.1888"/>
<polygon fill="#000000" stroke="#000000" points="528.4062,-102.4467 526.0155,-92.1251 521.4478,-101.6847 528.4062,-102.4467"/>
</g>
<!-- dj -->
<g id="node3" class="node">
<title>dj</title>
<ellipse fill="#c0c0c0" stroke="#c0c0c0" cx="413" cy="-183.6" rx="27" ry="18"/>
<text text-anchor="middle" x="413" y="-179.4" font-family="Times,serif" font-size="14.00" fill="#000000">dj</text>
</g>
<!-- dj&#45;&gt;assume non&#45;prod admin role -->
<g id="edge5" class="edge">
<title>dj-&gt;assume non-prod admin role</title>
<path fill="none" stroke="#000000" d="M395.7562,-169.4961C373.8479,-151.5771 335.6792,-120.3585 308.9646,-98.5083"/>
<polygon fill="#000000" stroke="#000000" points="311.0288,-95.675 301.0722,-92.0531 306.597,-101.0935 311.0288,-95.675"/>
</g>
<!-- dj&#45;&gt;assume prod admin role -->
<g id="edge2" class="edge">
<title>dj-&gt;assume prod admin role</title>
<path fill="none" stroke="#000000" d="M428.5094,-168.8189C447.3475,-150.8654 479.407,-120.3113 502.0342,-98.7466"/>
<polygon fill="#000000" stroke="#000000" points="504.4891,-101.2419 509.3134,-91.8091 499.6597,-96.1746 504.4891,-101.2419"/>
</g>
<!-- james -->
<g id="node4" class="node">
<title>james</title>
<ellipse fill="#c0c0c0" stroke="#c0c0c0" cx="290" cy="-183.6" rx="33.6228" ry="18"/>
<text text-anchor="middle" x="290" y="-179.4" font-family="Times,serif" font-size="14.00" fill="#000000">james</text>
</g>
<!-- james&#45;&gt;assume non&#45;prod admin role -->
<g id="edge6" class="edge">
<title>james-&gt;assume non-prod admin role</title>
<path fill="none" stroke="#000000" d="M288.1836,-165.5018C286.4559,-148.2883 283.8309,-122.1333 281.8292,-102.1888"/>
<polygon fill="#000000" stroke="#000000" points="285.3004,-101.7256 280.8191,-92.1251 278.3353,-102.4247 285.3004,-101.7256"/>
</g>
<!-- james&#45;&gt;assume prod admin role -->
<g id="edge3" class="edge">
<title>james-&gt;assume prod admin role</title>
<path fill="none" stroke="#000000" d="M321.3419,-177.0845C356.7872,-169.6919 409.8964,-158.5324 412,-157.6 445.3502,-142.8176 478.636,-117.4588 500.9418,-98.5372"/>
<polygon fill="#000000" stroke="#000000" points="503.3605,-101.0729 508.6427,-91.8888 498.7861,-95.7743 503.3605,-101.0729"/>
</g>
</g>
</svg>