<?xml version="1.0" encoding="UTF-8" standalone="no"?><!DOCTYPE svg PUBLIC "-//W3C//DTD SVG 1.1//EN" "http://www.w3.org/Graphics/SVG/1.1/DTD/svg11.dtd"><!-- Generated by graphviz version 2.40.1 (20161225.0304)
 --><!-- Title: G Pages: 1 --><svg xmlns="http://www.w3.org/2000/svg" xmlns:xlink="http://www.w3.org/1999/xlink" width="958pt" height="427pt" viewBox="0.00 0.00 958.00 427.20">
<g id="graph0" class="graph" transform="scale(1 1) rotate(0) translate(4 423.2)">
<title>G</title>
<polygon fill="#ffffff" stroke="transparent" points="-4,4 -4,-423.2 954,-423.2 954,4 -4,4"/>
<g id="clust1" class="cluster">
<title>cluster_0</title>
<polygon fill="#d3d3d3" stroke="#d3d3d3" points="322,-262.4 322,-411.2 628,-411.2 628,-262.4 322,-262.4"/>
<text text-anchor="middle" x="475" y="-394.6" font-family="Times,serif" font-size="14.00" fill="#000000">Asterion Internet Gateway</text>
</g>
<g id="clust2" class="cluster">
<title>cluster_1</title>
<polygon fill="#d3d3d3" stroke="#d3d3d3" points="165,-177.6 165,-254.4 471,-254.4 471,-177.6 165,-177.6"/>
<text text-anchor="middle" x="318" y="-237.8" font-family="Times,serif" font-size="14.00" fill="#000000">Asterion Switch 1</text>
</g>
<g id="clust3" class="cluster">
<title>cluster_2</title>
<polygon fill="#d3d3d3" stroke="#d3d3d3" points="479,-177.6 479,-254.4 785,-254.4 785,-177.6 479,-177.6"/>
<text text-anchor="middle" x="632" y="-237.8" font-family="Times,serif" font-size="14.00" fill="#000000">Asterion Switch 2</text>
</g>
<g id="clust4" class="cluster">
<title>cluster_3</title>
<polygon fill="#d3d3d3" stroke="#d3d3d3" points="8,-92.8 8,-169.6 314,-169.6 314,-92.8 8,-92.8"/>
<text text-anchor="middle" x="161" y="-153" font-family="Times,serif" font-size="14.00" fill="#000000">Asterion RPI Node 'Server 1'</text>
</g>
<g id="clust5" class="cluster">
<title>cluster_4</title>
<polygon fill="#d3d3d3" stroke="#d3d3d3" points="322,-92.8 322,-169.6 628,-169.6 628,-92.8 322,-92.8"/>
<text text-anchor="middle" x="475" y="-153" font-family="Times,serif" font-size="14.00" fill="#000000">Asterion RPI Node 'Server 2'</text>
</g>
<g id="clust6" class="cluster">
<title>cluster_5</title>
<polygon fill="#d3d3d3" stroke="#d3d3d3" points="636,-92.8 636,-169.6 942,-169.6 942,-92.8 636,-92.8"/>
<text text-anchor="middle" x="789" y="-153" font-family="Times,serif" font-size="14.00" fill="#000000">Asterion RPI Node 'Server 3'</text>
</g>
<g id="clust7" class="cluster">
<title>cluster_6</title>
<polygon fill="#d3d3d3" stroke="#d3d3d3" points="8,-8 8,-84.8 314,-84.8 314,-8 8,-8"/>
<text text-anchor="middle" x="161" y="-68.2" font-family="Times,serif" font-size="14.00" fill="#000000">Asterion RPI Node 'Worker 1'</text>
</g>
<g id="clust8" class="cluster">
<title>cluster_7</title>
<polygon fill="#d3d3d3" stroke="#d3d3d3" points="322,-8 322,-84.8 628,-84.8 628,-8 322,-8"/>
<text text-anchor="middle" x="475" y="-68.2" font-family="Times,serif" font-size="14.00" fill="#000000">Asterion RPI Node 'Worker 2'</text>
</g>
<g id="clust9" class="cluster">
<title>cluster_8</title>
<polygon fill="#d3d3d3" stroke="#d3d3d3" points="636,-8 636,-84.8 942,-84.8 942,-8 636,-8"/>
<text text-anchor="middle" x="789" y="-68.2" font-family="Times,serif" font-size="14.00" fill="#000000">Asterion RPI Node 'Worker 3'</text>
</g>
<!-- a0 -->
<g id="node1" class="node">
<title>a0</title>
<ellipse fill="#ffffff" stroke="#ffffff" cx="379" cy="-288.4" rx="48.7201" ry="18"/>
<text text-anchor="middle" x="379" y="-284.2" font-family="Times,serif" font-size="14.00" fill="#000000">Port 8080</text>
</g>
<!-- b0 -->
<g id="node6" class="node">
<title>b0</title>
<ellipse fill="#ffffff" stroke="#ffffff" cx="222" cy="-203.6" rx="48.7201" ry="18"/>
<text text-anchor="middle" x="222" y="-199.4" font-family="Times,serif" font-size="14.00" fill="#000000">Port 8080</text>
</g>
<!-- a0&#45;&gt;b0 -->
<g id="edge4" class="edge">
<title>a0-&gt;b0</title>
<path fill="none" stroke="#000000" d="M338.4424,-278.353C319.8981,-272.801 298.0835,-264.8759 280,-254.4 267.7533,-247.3054 255.7288,-237.4053 245.8321,-228.2275"/>
<polygon fill="#000000" stroke="#000000" points="248.0281,-225.4842 238.3877,-221.0894 243.1833,-230.5367 248.0281,-225.4842"/>
</g>
<!-- c0 -->
<g id="node9" class="node">
<title>c0</title>
<ellipse fill="#ffffff" stroke="#ffffff" cx="536" cy="-203.6" rx="48.7201" ry="18"/>
<text text-anchor="middle" x="536" y="-199.4" font-family="Times,serif" font-size="14.00" fill="#000000">Port 8080</text>
</g>
<!-- a0&#45;&gt;c0 -->
<g id="edge7" class="edge">
<title>a0-&gt;c0</title>
<path fill="none" stroke="#000000" d="M408.323,-273.7911C417.3615,-269.689 427.4507,-265.5059 437,-262.4 453.4128,-257.0617 459.4663,-261.922 475,-254.4 488.6405,-247.7948 501.8182,-237.4904 512.4136,-227.8837"/>
<polygon fill="#000000" stroke="#000000" points="515.1064,-230.1549 519.9775,-220.7462 510.3022,-225.0637 515.1064,-230.1549"/>
</g>
<!-- a1 -->
<g id="node2" class="node">
<title>a1</title>
<ellipse fill="#ffffff" stroke="#ffffff" cx="485" cy="-288.4" rx="39.4069" ry="18"/>
<text text-anchor="middle" x="485" y="-284.2" font-family="Times,serif" font-size="14.00" fill="#000000">Port 80</text>
</g>
<!-- b1 -->
<g id="node7" class="node">
<title>b1</title>
<ellipse fill="#ffffff" stroke="#ffffff" cx="328" cy="-203.6" rx="39.4069" ry="18"/>
<text text-anchor="middle" x="328" y="-199.4" font-family="Times,serif" font-size="14.00" fill="#000000">Port 80</text>
</g>
<!-- a1&#45;&gt;b1 -->
<g id="edge5" class="edge">
<title>a1-&gt;b1</title>
<path fill="none" stroke="#000000" d="M461.8435,-273.6418C454.1975,-269.3817 445.4747,-265.1466 437,-262.4 410.9887,-253.9699 400.3527,-266.8338 376,-254.4 364.4656,-248.5109 354.2054,-238.7018 346.1619,-229.2653"/>
<polygon fill="#000000" stroke="#000000" points="348.669,-226.7965 339.6877,-221.1763 343.2039,-231.1706 348.669,-226.7965"/>
</g>
<!-- c1 -->
<g id="node10" class="node">
<title>c1</title>
<ellipse fill="#ffffff" stroke="#ffffff" cx="642" cy="-203.6" rx="39.4069" ry="18"/>
<text text-anchor="middle" x="642" y="-199.4" font-family="Times,serif" font-size="14.00" fill="#000000">Port 80</text>
</g>
<!-- a1&#45;&gt;c1 -->
<g id="edge8" class="edge">
<title>a1-&gt;c1</title>
<path fill="none" stroke="#000000" d="M508.1565,-273.6418C515.8025,-269.3817 524.5253,-265.1466 533,-262.4 559.0113,-253.9699 569.6473,-266.8338 594,-254.4 605.5344,-248.5109 615.7946,-238.7018 623.8381,-229.2653"/>
<polygon fill="#000000" stroke="#000000" points="626.7961,-231.1706 630.3123,-221.1763 621.331,-226.7965 626.7961,-231.1706"/>
</g>
<!-- a3 -->
<g id="node3" class="node">
<title>a3</title>
<ellipse fill="#ffffff" stroke="#ffffff" cx="581" cy="-288.4" rx="39.4069" ry="18"/>
<text text-anchor="middle" x="581" y="-284.2" font-family="Times,serif" font-size="14.00" fill="#000000">Port 22</text>
</g>
<!-- b2 -->
<g id="node8" class="node">
<title>b2</title>
<ellipse fill="#ffffff" stroke="#ffffff" cx="424" cy="-203.6" rx="39.4069" ry="18"/>
<text text-anchor="middle" x="424" y="-199.4" font-family="Times,serif" font-size="14.00" fill="#000000">Port 22</text>
</g>
<!-- a3&#45;&gt;b2 -->
<g id="edge6" class="edge">
<title>a3-&gt;b2</title>
<path fill="none" stroke="#000000" d="M557.8325,-273.6757C550.1858,-269.4174 541.4655,-265.1748 533,-262.4 508.2726,-254.2949 498.314,-265.9582 475,-254.4 462.9285,-248.4155 451.9793,-238.4617 443.348,-228.9433"/>
<polygon fill="#000000" stroke="#000000" points="445.8331,-226.4643 436.6692,-221.1469 440.517,-231.0184 445.8331,-226.4643"/>
</g>
<!-- c2 -->
<g id="node11" class="node">
<title>c2</title>
<ellipse fill="#ffffff" stroke="#ffffff" cx="738" cy="-203.6" rx="39.4069" ry="18"/>
<text text-anchor="middle" x="738" y="-199.4" font-family="Times,serif" font-size="14.00" fill="#000000">Port 22</text>
</g>
<!-- a3&#45;&gt;c2 -->
<g id="edge9" class="edge">
<title>a3-&gt;c2</title>
<path fill="none" stroke="#000000" d="M617.5754,-281.8912C639.7316,-276.7971 667.8875,-268.2033 690,-254.4 700.8269,-247.6415 710.8603,-237.8605 718.9244,-228.6818"/>
<polygon fill="#000000" stroke="#000000" points="721.7364,-230.7753 725.4745,-220.8618 716.3702,-226.2804 721.7364,-230.7753"/>
</g>
<!-- a00 -->
<g id="node4" class="node">
<title>a00</title>
<ellipse fill="#ffffff" stroke="#ffffff" cx="571" cy="-360.4" rx="48.7201" ry="18"/>
<text text-anchor="middle" x="571" y="-356.2" font-family="Times,serif" font-size="14.00" fill="#000000">Port 6833</text>
</g>
<!-- a00&#45;&gt;a3 -->
<g id="edge1" class="edge">
<title>a00-&gt;a3</title>
<path fill="none" stroke="#000000" d="M573.5234,-342.2314C574.5929,-334.531 575.8647,-325.3743 577.0532,-316.8166"/>
<polygon fill="#000000" stroke="#000000" points="580.5336,-317.1997 578.4426,-306.8133 573.6001,-316.2367 580.5336,-317.1997"/>
</g>
<!-- a01 -->
<g id="node5" class="node">
<title>a01</title>
<ellipse fill="#ffffff" stroke="#ffffff" cx="417" cy="-360.4" rx="53.8773" ry="18"/>
<text text-anchor="middle" x="417" y="-356.2" font-family="Times,serif" font-size="14.00" fill="#000000">Port 30325</text>
</g>
<!-- a01&#45;&gt;a0 -->
<g id="edge2" class="edge">
<title>a01-&gt;a0</title>
<path fill="none" stroke="#000000" d="M407.6067,-342.6022C403.2677,-334.381 398.0217,-324.441 393.2131,-315.3301"/>
<polygon fill="#000000" stroke="#000000" points="396.1799,-313.4527 388.4169,-306.2425 389.9892,-316.7201 396.1799,-313.4527"/>
</g>
<!-- a01&#45;&gt;a1 -->
<g id="edge3" class="edge">
<title>a01-&gt;a1</title>
<path fill="none" stroke="#000000" d="M433.4609,-342.9708C442.1058,-333.8174 452.8339,-322.4582 462.2603,-312.4773"/>
<polygon fill="#000000" stroke="#000000" points="464.8372,-314.8463 469.1589,-305.1729 459.7481,-310.0399 464.8372,-314.8463"/>
</g>
<!-- d0 -->
<g id="node12" class="node">
<title>d0</title>
<ellipse fill="#ffffff" stroke="#ffffff" cx="65" cy="-118.8" rx="48.7201" ry="18"/>
<text text-anchor="middle" x="65" y="-114.6" font-family="Times,serif" font-size="14.00" fill="#000000">Port 8080</text>
</g>
<!-- b0&#45;&gt;d0 -->
<g id="edge10" class="edge">
<title>b0-&gt;d0</title>
<path fill="none" stroke="#000000" d="M181.4424,-193.553C162.8981,-188.001 141.0835,-180.0759 123,-169.6 110.7533,-162.5054 98.7288,-152.6053 88.8321,-143.4275"/>
<polygon fill="#000000" stroke="#000000" points="91.0281,-140.6842 81.3877,-136.2894 86.1833,-145.7367 91.0281,-140.6842"/>
</g>
<!-- e0 -->
<g id="node15" class="node">
<title>e0</title>
<ellipse fill="#ffffff" stroke="#ffffff" cx="379" cy="-118.8" rx="48.7201" ry="18"/>
<text text-anchor="middle" x="379" y="-114.6" font-family="Times,serif" font-size="14.00" fill="#000000">Port 8080</text>
</g>
<!-- b0&#45;&gt;e0 -->
<g id="edge16" class="edge">
<title>b0-&gt;e0</title>
<path fill="none" stroke="#000000" d="M251.323,-188.9911C260.3615,-184.889 270.4507,-180.7059 280,-177.6 296.4128,-172.2617 302.4663,-177.122 318,-169.6 331.6405,-162.9948 344.8182,-152.6904 355.4136,-143.0837"/>
<polygon fill="#000000" stroke="#000000" points="358.1064,-145.3549 362.9775,-135.9462 353.3022,-140.2637 358.1064,-145.3549"/>
</g>
<!-- f0 -->
<g id="node18" class="node">
<title>f0</title>
<ellipse fill="#ffffff" stroke="#ffffff" cx="693" cy="-118.8" rx="48.7201" ry="18"/>
<text text-anchor="middle" x="693" y="-114.6" font-family="Times,serif" font-size="14.00" fill="#000000">Port 8080</text>
</g>
<!-- b0&#45;&gt;f0 -->
<g id="edge22" class="edge">
<title>b0-&gt;f0</title>
<path fill="none" stroke="#000000" d="M249.539,-188.5608C258.9271,-184.1728 269.6666,-179.9332 280,-177.6 318.1605,-168.9835 595.3669,-183.329 632,-169.6 646.6424,-164.1125 660.2879,-153.5104 670.944,-143.4053"/>
<polygon fill="#000000" stroke="#000000" points="673.542,-145.7573 678.1465,-136.2153 668.5965,-140.8033 673.542,-145.7573"/>
</g>
<!-- d1 -->
<g id="node13" class="node">
<title>d1</title>
<ellipse fill="#ffffff" stroke="#ffffff" cx="171" cy="-118.8" rx="39.4069" ry="18"/>
<text text-anchor="middle" x="171" y="-114.6" font-family="Times,serif" font-size="14.00" fill="#000000">Port 80</text>
</g>
<!-- b1&#45;&gt;d1 -->
<g id="edge11" class="edge">
<title>b1-&gt;d1</title>
<path fill="none" stroke="#000000" d="M304.8435,-188.8418C297.1975,-184.5817 288.4747,-180.3466 280,-177.6 253.9887,-169.1699 243.3527,-182.0338 219,-169.6 207.4656,-163.7109 197.2054,-153.9018 189.1619,-144.4653"/>
<polygon fill="#000000" stroke="#000000" points="191.669,-141.9965 182.6877,-136.3763 186.2039,-146.3706 191.669,-141.9965"/>
</g>
<!-- e1 -->
<g id="node16" class="node">
<title>e1</title>
<ellipse fill="#ffffff" stroke="#ffffff" cx="485" cy="-118.8" rx="39.4069" ry="18"/>
<text text-anchor="middle" x="485" y="-114.6" font-family="Times,serif" font-size="14.00" fill="#000000">Port 80</text>
</g>
<!-- b1&#45;&gt;e1 -->
<g id="edge17" class="edge">
<title>b1-&gt;e1</title>
<path fill="none" stroke="#000000" d="M351.1565,-188.8418C358.8025,-184.5817 367.5253,-180.3466 376,-177.6 402.0113,-169.1699 412.6473,-182.0338 437,-169.6 448.5344,-163.7109 458.7946,-153.9018 466.8381,-144.4653"/>
<polygon fill="#000000" stroke="#000000" points="469.7961,-146.3706 473.3123,-136.3763 464.331,-141.9965 469.7961,-146.3706"/>
</g>
<!-- f1 -->
<g id="node19" class="node">
<title>f1</title>
<ellipse fill="#ffffff" stroke="#ffffff" cx="799" cy="-118.8" rx="39.4069" ry="18"/>
<text text-anchor="middle" x="799" y="-114.6" font-family="Times,serif" font-size="14.00" fill="#000000">Port 80</text>
</g>
<!-- b1&#45;&gt;f1 -->
<g id="edge23" class="edge">
<title>b1-&gt;f1</title>
<path fill="none" stroke="#000000" d="M350.5058,-188.556C358.2562,-184.1676 367.2049,-179.9291 376,-177.6 416.2874,-166.9311 712.9041,-186.4999 751,-169.6 763.2178,-164.18 773.8085,-154.0185 781.9102,-144.1996"/>
<polygon fill="#000000" stroke="#000000" points="784.7849,-146.2029 788.1113,-136.1438 779.238,-141.9331 784.7849,-146.2029"/>
</g>
<!-- d2 -->
<g id="node14" class="node">
<title>d2</title>
<ellipse fill="#ffffff" stroke="#ffffff" cx="267" cy="-118.8" rx="39.4069" ry="18"/>
<text text-anchor="middle" x="267" y="-114.6" font-family="Times,serif" font-size="14.00" fill="#000000">Port 22</text>
</g>
<!-- b2&#45;&gt;d2 -->
<g id="edge12" class="edge">
<title>b2-&gt;d2</title>
<path fill="none" stroke="#000000" d="M400.8325,-188.8757C393.1858,-184.6174 384.4655,-180.3748 376,-177.6 351.2726,-169.4949 341.314,-181.1582 318,-169.6 305.9285,-163.6155 294.9793,-153.6617 286.348,-144.1433"/>
<polygon fill="#000000" stroke="#000000" points="288.8331,-141.6643 279.6692,-136.3469 283.517,-146.2184 288.8331,-141.6643"/>
</g>
<!-- e2 -->
<g id="node17" class="node">
<title>e2</title>
<ellipse fill="#ffffff" stroke="#ffffff" cx="581" cy="-118.8" rx="39.4069" ry="18"/>
<text text-anchor="middle" x="581" y="-114.6" font-family="Times,serif" font-size="14.00" fill="#000000">Port 22</text>
</g>
<!-- b2&#45;&gt;e2 -->
<g id="edge18" class="edge">
<title>b2-&gt;e2</title>
<path fill="none" stroke="#000000" d="M447.9386,-189.312C456.253,-184.9204 465.8026,-180.4881 475,-177.6 499.8266,-169.8041 509.8637,-181.51 533,-169.6 544.5147,-163.6725 554.7717,-153.8571 562.818,-144.4261"/>
<polygon fill="#000000" stroke="#000000" points="565.7724,-146.3364 569.2961,-136.3446 560.3106,-141.9582 565.7724,-146.3364"/>
</g>
<!-- f2 -->
<g id="node20" class="node">
<title>f2</title>
<ellipse fill="#ffffff" stroke="#ffffff" cx="895" cy="-118.8" rx="39.4069" ry="18"/>
<text text-anchor="middle" x="895" y="-114.6" font-family="Times,serif" font-size="14.00" fill="#000000">Port 22</text>
</g>
<!-- b2&#45;&gt;f2 -->
<g id="edge24" class="edge">
<title>b2-&gt;f2</title>
<path fill="none" stroke="#000000" d="M447.2515,-188.9664C455.6695,-184.4329 465.4584,-180.0006 475,-177.6 515.0934,-167.5126 809.2102,-186.368 847,-169.6 859.2173,-164.179 869.808,-154.0173 877.9098,-144.1985"/>
<polygon fill="#000000" stroke="#000000" points="880.7844,-146.2021 884.1109,-136.143 875.2375,-141.9321 880.7844,-146.2021"/>
</g>
<!-- c0&#45;&gt;d0 -->
<g id="edge13" class="edge">
<title>c0-&gt;d0</title>
<path fill="none" stroke="#000000" d="M507.5753,-188.8365C497.5512,-184.3516 486.0274,-179.9829 475,-177.6 436.7614,-169.337 159.4593,-183.7841 123,-169.6 108.9833,-164.147 96.0976,-153.6947 86.0503,-143.682"/>
<polygon fill="#000000" stroke="#000000" points="88.3719,-141.0439 78.9486,-136.2011 83.2951,-145.8633 88.3719,-141.0439"/>
</g>
<!-- c0&#45;&gt;e0 -->
<g id="edge19" class="edge">
<title>c0-&gt;e0</title>
<path fill="none" stroke="#000000" d="M505.7216,-189.3136C496.0541,-185.1281 485.2115,-180.8171 475,-177.6 458.5385,-172.4139 452.4389,-177.3148 437,-169.6 423.8324,-163.0202 411.275,-152.7193 401.2332,-143.1085"/>
<polygon fill="#000000" stroke="#000000" points="403.627,-140.5527 394.0762,-135.9665 398.6825,-145.5076 403.627,-140.5527"/>
</g>
<!-- c0&#45;&gt;f0 -->
<g id="edge25" class="edge">
<title>c0-&gt;f0</title>
<path fill="none" stroke="#000000" d="M565.323,-188.9911C574.3615,-184.889 584.4507,-180.7059 594,-177.6 610.4128,-172.2617 616.4663,-177.122 632,-169.6 645.6405,-162.9948 658.8182,-152.6904 669.4136,-143.0837"/>
<polygon fill="#000000" stroke="#000000" points="672.1064,-145.3549 676.9775,-135.9462 667.3022,-140.2637 672.1064,-145.3549"/>
</g>
<!-- c1&#45;&gt;d1 -->
<g id="edge14" class="edge">
<title>c1-&gt;d1</title>
<path fill="none" stroke="#000000" d="M619.4942,-188.556C611.7438,-184.1676 602.7951,-179.9291 594,-177.6 553.7126,-166.9311 257.0959,-186.4999 219,-169.6 206.7822,-164.18 196.1915,-154.0185 188.0898,-144.1996"/>
<polygon fill="#000000" stroke="#000000" points="190.762,-141.9331 181.8887,-136.1438 185.2151,-146.2029 190.762,-141.9331"/>
</g>
<!-- c1&#45;&gt;e1 -->
<g id="edge20" class="edge">
<title>c1-&gt;e1</title>
<path fill="none" stroke="#000000" d="M618.8435,-188.8418C611.1975,-184.5817 602.4747,-180.3466 594,-177.6 567.9887,-169.1699 557.3527,-182.0338 533,-169.6 521.4656,-163.7109 511.2054,-153.9018 503.1619,-144.4653"/>
<polygon fill="#000000" stroke="#000000" points="505.669,-141.9965 496.6877,-136.3763 500.2039,-146.3706 505.669,-141.9965"/>
</g>
<!-- c1&#45;&gt;f1 -->
<g id="edge26" class="edge">
<title>c1-&gt;f1</title>
<path fill="none" stroke="#000000" d="M665.1565,-188.8418C672.8025,-184.5817 681.5253,-180.3466 690,-177.6 716.0113,-169.1699 726.6473,-182.0338 751,-169.6 762.5344,-163.7109 772.7946,-153.9018 780.8381,-144.4653"/>
<polygon fill="#000000" stroke="#000000" points="783.7961,-146.3706 787.3123,-136.3763 778.331,-141.9965 783.7961,-146.3706"/>
</g>
<!-- c2&#45;&gt;d2 -->
<g id="edge15" class="edge">
<title>c2-&gt;d2</title>
<path fill="none" stroke="#000000" d="M715.494,-188.5569C707.7436,-184.1686 698.7949,-179.9299 690,-177.6 650.0356,-167.013 356.0395,-185.7936 318,-169.6 305.2069,-164.1539 293.9008,-153.8466 285.2056,-143.932"/>
<polygon fill="#000000" stroke="#000000" points="287.8706,-141.6624 278.8134,-136.1654 282.4657,-146.1108 287.8706,-141.6624"/>
</g>
<!-- c2&#45;&gt;e2 -->
<g id="edge21" class="edge">
<title>c2-&gt;e2</title>
<path fill="none" stroke="#000000" d="M714.8325,-188.8757C707.1858,-184.6174 698.4655,-180.3748 690,-177.6 665.2726,-169.4949 655.314,-181.1582 632,-169.6 619.9285,-163.6155 608.9793,-153.6617 600.348,-144.1433"/>
<polygon fill="#000000" stroke="#000000" points="602.8331,-141.6643 593.6692,-136.3469 597.517,-146.2184 602.8331,-141.6643"/>
</g>
<!-- c2&#45;&gt;f2 -->
<g id="edge27" class="edge">
<title>c2-&gt;f2</title>
<path fill="none" stroke="#000000" d="M774.5754,-197.0912C796.7316,-191.9971 824.8875,-183.4033 847,-169.6 857.8269,-162.8415 867.8603,-153.0605 875.9244,-143.8818"/>
<polygon fill="#000000" stroke="#000000" points="878.7364,-145.9753 882.4745,-136.0618 873.3702,-141.4804 878.7364,-145.9753"/>
</g>
<!-- g0 -->
<g id="node21" class="node">
<title>g0</title>
<ellipse fill="#ffffff" stroke="#ffffff" cx="65" cy="-34" rx="48.7201" ry="18"/>
<text text-anchor="middle" x="65" y="-29.8" font-family="Times,serif" font-size="14.00" fill="#000000">Port 8080</text>
</g>
<!-- d0&#45;&gt;g0 -->
<g id="edge28" class="edge">
<title>d0-&gt;g0</title>
<path fill="none" stroke="#000000" d="M65,-100.3997C65,-89.2112 65,-74.6983 65,-62.0954"/>
<polygon fill="#000000" stroke="#000000" points="68.5001,-62.0731 65,-52.0731 61.5001,-62.0731 68.5001,-62.0731"/>
</g>
<!-- g1 -->
<g id="node22" class="node">
<title>g1</title>
<ellipse fill="#ffffff" stroke="#ffffff" cx="171" cy="-34" rx="39.4069" ry="18"/>
<text text-anchor="middle" x="171" y="-29.8" font-family="Times,serif" font-size="14.00" fill="#000000">Port 80</text>
</g>
<!-- d1&#45;&gt;g1 -->
<g id="edge29" class="edge">
<title>d1-&gt;g1</title>
<path fill="none" stroke="#000000" d="M171,-100.3997C171,-89.2112 171,-74.6983 171,-62.0954"/>
<polygon fill="#000000" stroke="#000000" points="174.5001,-62.0731 171,-52.0731 167.5001,-62.0731 174.5001,-62.0731"/>
</g>
<!-- g2 -->
<g id="node23" class="node">
<title>g2</title>
<ellipse fill="#ffffff" stroke="#ffffff" cx="267" cy="-34" rx="39.4069" ry="18"/>
<text text-anchor="middle" x="267" y="-29.8" font-family="Times,serif" font-size="14.00" fill="#000000">Port 22</text>
</g>
<!-- d2&#45;&gt;g2 -->
<g id="edge30" class="edge">
<title>d2-&gt;g2</title>
<path fill="none" stroke="#000000" d="M267,-100.3997C267,-89.2112 267,-74.6983 267,-62.0954"/>
<polygon fill="#000000" stroke="#000000" points="270.5001,-62.0731 267,-52.0731 263.5001,-62.0731 270.5001,-62.0731"/>
</g>
<!-- h0 -->
<g id="node24" class="node">
<title>h0</title>
<ellipse fill="#ffffff" stroke="#ffffff" cx="379" cy="-34" rx="48.7201" ry="18"/>
<text text-anchor="middle" x="379" y="-29.8" font-family="Times,serif" font-size="14.00" fill="#000000">Port 8080</text>
</g>
<!-- e0&#45;&gt;h0 -->
<g id="edge31" class="edge">
<title>e0-&gt;h0</title>
<path fill="none" stroke="#000000" d="M379,-100.3997C379,-89.2112 379,-74.6983 379,-62.0954"/>
<polygon fill="#000000" stroke="#000000" points="382.5001,-62.0731 379,-52.0731 375.5001,-62.0731 382.5001,-62.0731"/>
</g>
<!-- h1 -->
<g id="node25" class="node">
<title>h1</title>
<ellipse fill="#ffffff" stroke="#ffffff" cx="485" cy="-34" rx="39.4069" ry="18"/>
<text text-anchor="middle" x="485" y="-29.8" font-family="Times,serif" font-size="14.00" fill="#000000">Port 80</text>
</g>
<!-- e1&#45;&gt;h1 -->
<g id="edge32" class="edge">
<title>e1-&gt;h1</title>
<path fill="none" stroke="#000000" d="M485,-100.3997C485,-89.2112 485,-74.6983 485,-62.0954"/>
<polygon fill="#000000" stroke="#000000" points="488.5001,-62.0731 485,-52.0731 481.5001,-62.0731 488.5001,-62.0731"/>
</g>
<!-- h2 -->
<g id="node26" class="node">
<title>h2</title>
<ellipse fill="#ffffff" stroke="#ffffff" cx="581" cy="-34" rx="39.4069" ry="18"/>
<text text-anchor="middle" x="581" y="-29.8" font-family="Times,serif" font-size="14.00" fill="#000000">Port 22</text>
</g>
<!-- e2&#45;&gt;h2 -->
<g id="edge33" class="edge">
<title>e2-&gt;h2</title>
<path fill="none" stroke="#000000" d="M581,-100.3997C581,-89.2112 581,-74.6983 581,-62.0954"/>
<polygon fill="#000000" stroke="#000000" points="584.5001,-62.0731 581,-52.0731 577.5001,-62.0731 584.5001,-62.0731"/>
</g>
<!-- i0 -->
<g id="node27" class="node">
<title>i0</title>
<ellipse fill="#ffffff" stroke="#ffffff" cx="693" cy="-34" rx="48.7201" ry="18"/>
<text text-anchor="middle" x="693" y="-29.8" font-family="Times,serif" font-size="14.00" fill="#000000">Port 8080</text>
</g>
<!-- f0&#45;&gt;i0 -->
<g id="edge34" class="edge">
<title>f0-&gt;i0</title>
<path fill="none" stroke="#000000" d="M693,-100.3997C693,-89.2112 693,-74.6983 693,-62.0954"/>
<polygon fill="#000000" stroke="#000000" points="696.5001,-62.0731 693,-52.0731 689.5001,-62.0731 696.5001,-62.0731"/>
</g>
<!-- i1 -->
<g id="node28" class="node">
<title>i1</title>
<ellipse fill="#ffffff" stroke="#ffffff" cx="799" cy="-34" rx="39.4069" ry="18"/>
<text text-anchor="middle" x="799" y="-29.8" font-family="Times,serif" font-size="14.00" fill="#000000">Port 80</text>
</g>
<!-- f1&#45;&gt;i1 -->
<g id="edge35" class="edge">
<title>f1-&gt;i1</title>
<path fill="none" stroke="#000000" d="M799,-100.3997C799,-89.2112 799,-74.6983 799,-62.0954"/>
<polygon fill="#000000" stroke="#000000" points="802.5001,-62.0731 799,-52.0731 795.5001,-62.0731 802.5001,-62.0731"/>
</g>
<!-- i2 -->
<g id="node29" class="node">
<title>i2</title>
<ellipse fill="#ffffff" stroke="#ffffff" cx="895" cy="-34" rx="39.4069" ry="18"/>
<text text-anchor="middle" x="895" y="-29.8" font-family="Times,serif" font-size="14.00" fill="#000000">Port 22</text>
</g>
<!-- f2&#45;&gt;i2 -->
<g id="edge36" class="edge">
<title>f2-&gt;i2</title>
<path fill="none" stroke="#000000" d="M895,-100.3997C895,-89.2112 895,-74.6983 895,-62.0954"/>
<polygon fill="#000000" stroke="#000000" points="898.5001,-62.0731 895,-52.0731 891.5001,-62.0731 898.5001,-62.0731"/>
</g>
</g>
</svg>